<svg width="289" height="122" viewBox="0 0 289 122" fill="none" xmlns="http://www.w3.org/2000/svg">
<path opacity="0.05" fill-rule="evenodd" clip-rule="evenodd" d="M139.14 1.56065L107.653 1.03736L105.145 0.995659L105.144 1.01171C104.992 9.92637 101.343 18.4245 94.9835 24.6742C88.6202 30.9277 80.0534 34.4286 71.1316 34.4216C62.2099 34.4145 53.6486 30.9 47.2952 24.6365C40.9446 18.3757 37.3089 9.86993 37.1718 0.953369L37.1716 0.941895L34.6627 0.979622L3.17544 1.45309L0.666504 1.49082L0.666533 1.49273C0.847163 13.4834 4.07828 25.1166 9.91695 35.3556C13.0874 40.9154 17.0266 46.064 21.6638 50.6357C34.8414 63.6268 52.5983 70.9162 71.1028 70.9308C89.6073 70.9454 107.376 63.6842 120.574 50.7139C125.218 46.1496 129.166 41.0072 132.345 35.4524C138.2 25.2222 141.45 13.5934 141.649 1.60235L139.14 1.56065ZM150.17 121.036L181.66 120.755L184.169 120.733L184.169 120.717C184.131 116.246 184.976 111.811 186.655 107.666C188.337 103.517 190.821 99.7408 193.966 96.5544C197.111 93.3679 200.854 90.8341 204.981 89.0984C209.108 87.3628 213.537 86.4594 218.014 86.4403C222.49 86.4212 226.927 87.2868 231.069 88.9872C235.21 90.6876 238.975 93.1893 242.147 96.3489C245.319 99.5084 247.835 103.263 249.552 107.398C251.268 111.533 252.151 115.966 252.149 120.443L254.659 120.444L286.149 120.456L288.659 120.457C288.662 111.171 286.831 101.976 283.271 93.4C282.283 91.0206 281.167 88.7019 279.931 86.4533C276.71 80.5974 272.666 75.2176 267.912 70.4826C261.333 63.9295 253.525 58.7406 244.935 55.2138C236.345 51.687 227.143 49.8918 217.858 49.9314C208.572 49.9711 199.386 51.8446 190.827 55.4446C182.267 59.0445 174.503 64.2999 167.981 70.9089C163.268 75.6843 159.27 81.0984 156.099 86.9815C154.881 89.2405 153.786 91.5687 152.818 93.9564C149.331 102.562 147.579 111.772 147.661 121.056L147.661 121.058L150.17 121.036Z" fill="white"/>
</svg>
